Raleway-Medium-OTF.ufo
<glyph name="dollar" format="1">
  <advance width="622"/>
  <unicode hex="0024"/>
  <outline>
    <contour>
      <point x="550" y="634" type="line"/>
      <point x="494" y="680"/>
      <point x="422" y="710"/>
      <point x="335" y="714" type="curve"/>
      <point x="335" y="815" type="line"/>
      <point x="291" y="815" type="line"/>
      <point x="291" y="714" type="line"/>
      <point x="157" y="706"/>
      <point x="62" y="633"/>
      <point x="62" y="505" type="curve" smooth="yes"/>
      <point x="62" y="392"/>
      <point x="137" y="353"/>
      <point x="281" y="318" type="curve" smooth="yes"/>
      <point x="296" y="314" type="line"/>
      <point x="296" y="75" type="line"/>
      <point x="200" y="83"/>
      <point x="117" y="128"/>
      <point x="78" y="169" type="curve"/>
      <point x="35" y="93" type="line"/>
      <point x="107" y="34"/>
      <point x="195" y="0"/>
      <point x="291" y="-6" type="curve"/>
      <point x="291" y="-107" type="line"/>
      <point x="335" y="-107" type="line"/>
      <point x="335" y="-7" type="line"/>
      <point x="475" y="-4"/>
      <point x="582" y="57"/>
      <point x="582" y="191" type="curve" smooth="yes"/>
      <point x="582" y="319"/>
      <point x="490" y="361"/>
      <point x="342" y="394" type="curve" smooth="yes"/>
      <point x="329" y="397" type="line"/>
      <point x="329" y="634" type="line"/>
      <point x="408" y="631"/>
      <point x="477" y="596"/>
      <point x="508" y="561" type="curve"/>
    </contour>
    <contour>
      <point x="486" y="182" type="curve" smooth="yes"/>
      <point x="486" y="111"/>
      <point x="428" y="74"/>
      <point x="329" y="74" type="curve"/>
      <point x="329" y="306" type="line"/>
      <point x="430" y="279"/>
      <point x="486" y="251"/>
    </contour>
    <contour>
      <point x="155" y="519" type="curve" smooth="yes"/>
      <point x="155" y="586"/>
      <point x="199" y="629"/>
      <point x="296" y="634" type="curve"/>
      <point x="296" y="404" type="line"/>
      <point x="199" y="428"/>
      <point x="155" y="452"/>
    </contour>
  </outline>
</glyph>
<glyph name="quotesingle" format="1">
  <advance width="210"/>
  <unicode hex="0027"/>
  <outline>
    <contour>
      <point x="143" y="501" type="line"/>
      <point x="143" y="718" type="line"/>
      <point x="67" y="718" type="line"/>
      <point x="67" y="501" type="line"/>
    </contour>
  </outline>
</glyph>
<glyph name="M" format="1">
  <advance width="874"/>
  <unicode hex="004D"/>
  <outline>
    <contour>
      <point x="789" y="0" type="line"/>
      <point x="789" y="710" type="line"/>
      <point x="695" y="710" type="line"/>
      <point x="437" y="249" type="line"/>
      <point x="180" y="710" type="line"/>
      <point x="85" y="710" type="line"/>
      <point x="85" y="0" type="line"/>
      <point x="175" y="0" type="line"/>
      <point x="175" y="549" type="line"/>
      <point x="412" y="128" type="line"/>
      <point x="463" y="128" type="line"/>
      <point x="699" y="549" type="line"/>
      <point x="699" y="0" type="line"/>
    </contour>
  </outline>
</glyph>
<glyph name="Z" format="1">
  <advance width="631"/>
  <unicode hex="005A"/>
  <outline>
    <contour>
      <point x="331" y="708" type="move" name="top"/>
    </contour>
    <contour>
      <point x="32" y="0" type="line"/>
      <point x="595" y="0" type="line"/>
      <point x="595" y="80" type="line"/>
      <point x="145" y="80" type="line"/>
      <point x="595" y="640" type="line"/>
      <point x="595" y="710" type="line"/>
      <point x="41" y="710" type="line"/>
      <point x="41" y="630" type="line"/>
      <point x="490" y="630" type="line"/>
      <point x="32" y="70" type="line"/>
    </contour>
  </outline>
</glyph>
<glyph name="cedilla" format="1">
  <advance width="296"/>
  <unicode hex="00B8"/>
  <outline>
    <contour>
      <point x="120" y="0" type="move" name="_bottom"/>
    </contour>
    <contour>
      <point x="22" y="-163" type="line"/>
      <point x="48" y="-173"/>
      <point x="83" y="-182"/>
      <point x="123" y="-182" type="curve" smooth="yes"/>
      <point x="195" y="-182"/>
      <point x="233" y="-153"/>
      <point x="233" y="-107" type="curve" smooth="yes"/>
      <point x="233" y="-64"/>
      <point x="201" y="-43"/>
      <point x="154" y="-43" type="curve" smooth="yes"/>
      <point x="144" y="-43"/>
      <point x="129" y="-44"/>
      <point x="118" y="-48" type="curve"/>
      <point x="153" y="7" type="line"/>
      <point x="114" y="21" type="line"/>
      <point x="56" y="-88" type="line"/>
      <point x="73" y="-83"/>
      <point x="108" y="-75"/>
      <point x="136" y="-75" type="curve" smooth="yes"/>
      <point x="166" y="-75"/>
      <point x="187" y="-84"/>
      <point x="187" y="-110" type="curve" smooth="yes"/>
      <point x="187" y="-135"/>
      <point x="166" y="-145"/>
      <point x="130" y="-145" type="curve" smooth="yes"/>
      <point x="95" y="-145"/>
      <point x="59" y="-135"/>
      <point x="42" y="-126" type="curve"/>
    </contour>
  </outline>
</glyph>
<glyph name="Ntilde" format="1">
  <advance width="770"/>
  <unicode hex="00D1"/>
  <outline>
    <contour>
      <point x="609" y="0" type="line"/>
      <point x="685" y="0" type="line"/>
      <point x="685" y="709" type="line"/>
      <point x="595" y="709" type="line"/>
      <point x="595" y="157" type="line"/>
      <point x="155" y="710" type="line"/>
      <point x="85" y="710" type="line"/>
      <point x="85" y="0" type="line"/>
      <point x="175" y="0" type="line"/>
      <point x="175" y="542" type="line"/>
    </contour>
    <contour>
      <point x="449" y="813" type="curve" smooth="yes"/>
      <point x="534" y="813"/>
      <point x="555" y="901"/>
      <point x="555" y="916" type="curve"/>
      <point x="503" y="916" type="line"/>
      <point x="503" y="912"/>
      <point x="498" y="867"/>
      <point x="447" y="867" type="curve" smooth="yes"/>
      <point x="398" y="867"/>
      <point x="375" y="910"/>
      <point x="318" y="910" type="curve" smooth="yes"/>
      <point x="239" y="910"/>
      <point x="219" y="824"/>
      <point x="219" y="807" type="curve"/>
      <point x="271" y="807" type="line"/>
      <point x="271" y="811"/>
      <point x="276" y="855"/>
      <point x="320" y="855" type="curve" smooth="yes"/>
      <point x="363" y="855"/>
      <point x="389" y="813"/>
    </contour>
  </outline>
</glyph>
<glyph name="Ograve" format="1">
  <advance width="748"/>
  <unicode hex="00D2"/>
  <outline>
    <contour>
      <point x="373" y="-5" type="curve" smooth="yes"/>
      <point x="565" y="-5"/>
      <point x="708" y="165"/>
      <point x="708" y="354" type="curve" smooth="yes"/>
      <point x="708" y="532"/>
      <point x="574" y="715"/>
      <point x="375" y="715" type="curve" smooth="yes"/>
      <point x="183" y="715"/>
      <point x="39" y="544"/>
      <point x="39" y="355" type="curve" smooth="yes"/>
      <point x="39" y="173"/>
      <point x="174" y="-5"/>
    </contour>
    <contour>
      <point x="130" y="355" type="curve" smooth="yes"/>
      <point x="130" y="493"/>
      <point x="223" y="633"/>
      <point x="374" y="633" type="curve" smooth="yes"/>
      <point x="518" y="633"/>
      <point x="617" y="500"/>
      <point x="617" y="355" type="curve" smooth="yes"/>
      <point x="617" y="218"/>
      <point x="525" y="76"/>
      <point x="374" y="76" type="curve" smooth="yes"/>
      <point x="227" y="76"/>
      <point x="130" y="210"/>
    </contour>
    <contour>
      <point x="360" y="796" type="line"/>
      <point x="417" y="816" type="line"/>
      <point x="358" y="917" type="line"/>
      <point x="271" y="917" type="line"/>
    </contour>
  </outline>
</glyph>
<glyph name="Ucircumflex" format="1">
  <advance width="755"/>
  <unicode hex="00DB"/>
  <outline>
    <contour>
      <point x="293" y="802" type="line"/>
      <point x="378" y="865" type="line"/>
      <point x="463" y="802" type="line"/>
      <point x="511" y="826" type="line"/>
      <point x="410" y="916" type="line"/>
      <point x="346" y="916" type="line"/>
      <point x="245" y="826" type="line"/>
    </contour>
    <contour>
      <point x="377" y="76" type="curve" smooth="yes"/>
      <point x="215" y="76"/>
      <point x="165" y="211"/>
      <point x="165" y="351" type="curve" smooth="yes"/>
      <point x="165" y="710" type="line"/>
      <point x="75" y="710" type="line"/>
      <point x="75" y="351" type="line" smooth="yes"/>
      <point x="75" y="169"/>
      <point x="152" y="-5"/>
      <point x="378" y="-5" type="curve" smooth="yes"/>
      <point x="596" y="-5"/>
      <point x="680" y="159"/>
      <point x="680" y="351" type="curve" smooth="yes"/>
      <point x="680" y="710" type="line"/>
      <point x="590" y="710" type="line"/>
      <point x="590" y="351" type="line" smooth="yes"/>
      <point x="590" y="215"/>
      <point x="542" y="76"/>
    </contour>
  </outline>
</glyph>
<glyph name="atilde" format="1">
  <advance width="554"/>
  <unicode hex="00E3"/>
  <outline>
    <contour>
      <point x="205" y="-10" type="curve" smooth="yes"/>
      <point x="286" y="-10"/>
      <point x="361" y="24"/>
      <point x="408" y="86" type="curve"/>
      <point x="410" y="49" type="line" smooth="yes"/>
      <point x="414" y="20"/>
      <point x="435" y="-4"/>
      <point x="470" y="-4" type="curve" smooth="yes"/>
      <point x="483" y="-4"/>
      <point x="494" y="-3"/>
      <point x="512" y="0" type="curve"/>
      <point x="512" y="76" type="line"/>
      <point x="492" y="77"/>
      <point x="484" y="86"/>
      <point x="484" y="108" type="curve" smooth="yes"/>
      <point x="484" y="321" type="line" smooth="yes"/>
      <point x="484" y="453"/>
      <point x="402" y="531"/>
      <point x="266" y="531" type="curve" smooth="yes"/>
      <point x="197" y="531"/>
      <point x="130" y="508"/>
      <point x="63" y="463" type="curve"/>
      <point x="92" y="406" type="line"/>
      <point x="149" y="446"/>
      <point x="204" y="467"/>
      <point x="258" y="467" type="curve" smooth="yes"/>
      <point x="345" y="467"/>
      <point x="396" y="415"/>
      <point x="396" y="330" type="curve" smooth="yes"/>
      <point x="396" y="288" type="line"/>
      <point x="356" y="304"/>
      <point x="301" y="314"/>
      <point x="250" y="314" type="curve" smooth="yes"/>
      <point x="121" y="314"/>
      <point x="30" y="248"/>
      <point x="30" y="153" type="curve" smooth="yes"/>
      <point x="30" y="61"/>
      <point x="106" y="-10"/>
    </contour>
    <contour>
      <point x="228" y="56" type="curve" smooth="yes"/>
      <point x="163" y="56"/>
      <point x="114" y="101"/>
      <point x="114" y="160" type="curve" smooth="yes"/>
      <point x="114" y="220"/>
      <point x="175" y="261"/>
      <point x="263" y="261" type="curve" smooth="yes"/>
      <point x="308" y="261"/>
      <point x="355" y="252"/>
      <point x="396" y="236" type="curve"/>
      <point x="396" y="159" type="line" smooth="yes"/>
      <point x="396" y="147"/>
      <point x="389" y="132"/>
      <point x="377" y="120" type="curve" smooth="yes"/>
      <point x="349" y="81"/>
      <point x="290" y="56"/>
    </contour>
    <contour>
      <point x="328" y="627" type="curve" smooth="yes"/>
      <point x="413" y="627"/>
      <point x="434" y="715"/>
      <point x="434" y="730" type="curve"/>
      <point x="382" y="730" type="line"/>
      <point x="382" y="726"/>
      <point x="377" y="681"/>
      <point x="326" y="681" type="curve" smooth="yes"/>
      <point x="277" y="681"/>
      <point x="254" y="724"/>
      <point x="197" y="724" type="curve" smooth="yes"/>
      <point x="118" y="724"/>
      <point x="98" y="638"/>
      <point x="98" y="621" type="curve"/>
      <point x="150" y="621" type="line"/>
      <point x="150" y="625"/>
      <point x="155" y="669"/>
      <point x="199" y="669" type="curve" smooth="yes"/>
      <point x="242" y="669"/>
      <point x="268" y="627"/>
    </contour>
  </outline>
</glyph>
<glyph name="itilde" format="1">
  <advance width="230"/>
  <unicode hex="0129"/>
  <outline>
    <contour>
      <point x="159" y="0" type="line"/>
      <point x="159" y="522" type="line"/>
      <point x="71" y="522" type="line"/>
      <point x="71" y="0" type="line"/>
    </contour>
    <contour>
      <point x="177" y="627" type="curve" smooth="yes"/>
      <point x="262" y="627"/>
      <point x="283" y="715"/>
      <point x="283" y="730" type="curve"/>
      <point x="231" y="730" type="line"/>
      <point x="231" y="726"/>
      <point x="226" y="681"/>
      <point x="175" y="681" type="curve" smooth="yes"/>
      <point x="126" y="681"/>
      <point x="103" y="724"/>
      <point x="46" y="724" type="curve" smooth="yes"/>
      <point x="-33" y="724"/>
      <point x="-53" y="638"/>
      <point x="-53" y="621" type="curve"/>
      <point x="-1" y="621" type="line"/>
      <point x="-1" y="625"/>
      <point x="4" y="669"/>
      <point x="48" y="669" type="curve" smooth="yes"/>
      <point x="91" y="669"/>
      <point x="117" y="627"/>
    </contour>
  </outline>
</glyph>
<glyph name="Ibreve" format="1">
  <advance width="260"/>
  <unicode hex="012C"/>
  <outline>
    <contour>
      <point x="175" y="0" type="line"/>
      <point x="175" y="710" type="line"/>
      <point x="85" y="710" type="line"/>
      <point x="85" y="0" type="line"/>
    </contour>
    <contour>
      <point x="130" y="848" type="curve" smooth="yes"/>
      <point x="100" y="848"/>
      <point x="73" y="880"/>
      <point x="73" y="916" type="curve"/>
      <point x="22" y="916" type="line"/>
      <point x="22" y="853"/>
      <point x="69" y="805"/>
      <point x="130" y="805" type="curve" smooth="yes"/>
      <point x="191" y="805"/>
      <point x="238" y="853"/>
      <point x="238" y="916" type="curve"/>
      <point x="188" y="916" type="line"/>
      <point x="184" y="877"/>
      <point x="159" y="848"/>
    </contour>
  </outline>
</glyph>
<glyph name="Iogonek" format="1">
  <advance width="260"/>
  <unicode hex="012E"/>
  <outline>
    <contour>
      <point x="126" y="-181" type="curve"/>
      <point x="148" y="-135" type="line"/>
      <point x="111" y="-131"/>
      <point x="93" y="-116"/>
      <point x="93" y="-92" type="curve" smooth="yes"/>
      <point x="93" y="-63"/>
      <point x="117" y="-36"/>
      <point x="175" y="0" type="curve"/>
      <point x="175" y="710" type="line"/>
      <point x="85" y="710" type="line"/>
      <point x="85" y="0" type="line"/>
      <point x="119" y="0" type="line"/>
      <point x="66" y="-35"/>
      <point x="42" y="-70"/>
      <point x="42" y="-104" type="curve" smooth="yes"/>
      <point x="42" y="-141"/>
      <point x="71" y="-171"/>
    </contour>
  </outline>
</glyph>
<glyph name="iogonek" format="1">
  <advance width="230"/>
  <unicode hex="012F"/>
  <outline>
    <contour>
      <point x="110" y="-181" type="curve"/>
      <point x="132" y="-135" type="line"/>
      <point x="95" y="-131"/>
      <point x="77" y="-116"/>
      <point x="77" y="-92" type="curve" smooth="yes"/>
      <point x="77" y="-63"/>
      <point x="101" y="-36"/>
      <point x="159" y="0" type="curve"/>
      <point x="159" y="522" type="line"/>
      <point x="71" y="522" type="line"/>
      <point x="71" y="0" type="line"/>
      <point x="103" y="0" type="line"/>
      <point x="50" y="-35"/>
      <point x="26" y="-70"/>
      <point x="26" y="-104" type="curve" smooth="yes"/>
      <point x="26" y="-141"/>
      <point x="55" y="-171"/>
    </contour>
    <contour>
      <point x="159" y="620" type="line"/>
      <point x="159" y="730" type="line"/>
      <point x="71" y="730" type="line"/>
      <point x="71" y="620" type="line"/>
    </contour>
  </outline>
</glyph>
<glyph name="IJ" format="1">
  <advance width="745"/>
  <unicode hex="0132"/>
  <outline>
    <contour>
      <point x="175" y="0" type="line"/>
      <point x="175" y="710" type="line"/>
      <point x="85" y="710" type="line"/>
      <point x="85" y="0" type="line"/>
    </contour>
    <contour>
      <point x="272" y="33" type="line"/>
      <point x="314" y="4"/>
      <point x="365" y="-11"/>
      <point x="426" y="-11" type="curve" smooth="yes"/>
      <point x="641" y="-11"/>
      <point x="668" y="133"/>
      <point x="668" y="349" type="curve" smooth="yes"/>
      <point x="668" y="710" type="line"/>
      <point x="578" y="710" type="line"/>
      <point x="578" y="349" type="line" smooth="yes"/>
      <point x="578" y="168"/>
      <point x="561" y="70"/>
      <point x="426" y="70" type="curve" smooth="yes"/>
      <point x="369" y="70"/>
      <point x="321" y="88"/>
      <point x="295" y="106" type="curve"/>
    </contour>
  </outline>
</glyph>
<glyph name="jcircumflex" format="1">
  <advance width="230"/>
  <unicode hex="0135"/>
  <outline>
    <contour>
      <point x="-3" y="-186" type="curve" smooth="yes"/>
      <point x="82" y="-186"/>
      <point x="159" y="-116"/>
      <point x="159" y="-17" type="curve" smooth="yes"/>
      <point x="159" y="522" type="line"/>
      <point x="71" y="522" type="line"/>
      <point x="71" y="-23" type="line" smooth="yes"/>
      <point x="71" y="-72"/>
      <point x="30" y="-108"/>
      <point x="-13" y="-108" type="curve" smooth="yes"/>
      <point x="-37" y="-108"/>
      <point x="-63" y="-102"/>
      <point x="-82" y="-85" type="curve"/>
      <point x="-123" y="-144" type="line"/>
      <point x="-91" y="-173"/>
      <point x="-49" y="-186"/>
    </contour>
    <contour>
      <point x="30" y="616" type="line"/>
      <point x="115" y="679" type="line"/>
      <point x="200" y="616" type="line"/>
      <point x="248" y="640" type="line"/>
      <point x="147" y="730" type="line"/>
      <point x="83" y="730" type="line"/>
      <point x="-18" y="640" type="line"/>
    </contour>
  </outline>
</glyph>
<glyph name="obreve" format="1">
  <advance width="599"/>
  <unicode hex="014F"/>
  <outline>
    <contour>
      <point x="299" y="-10" type="curve" smooth="yes"/>
      <point x="456" y="-10"/>
      <point x="563" y="115"/>
      <point x="563" y="260" type="curve" smooth="yes"/>
      <point x="563" y="406"/>
      <point x="455" y="531"/>
      <point x="299" y="531" type="curve" smooth="yes"/>
      <point x="144" y="531"/>
      <point x="36" y="406"/>
      <point x="36" y="260" type="curve" smooth="yes"/>
      <point x="36" y="115"/>
      <point x="142" y="-10"/>
    </contour>
    <contour>
      <point x="126" y="259" type="curve" smooth="yes"/>
      <point x="126" y="368"/>
      <point x="204" y="455"/>
      <point x="299" y="455" type="curve" smooth="yes"/>
      <point x="395" y="455"/>
      <point x="473" y="369"/>
      <point x="473" y="261" type="curve" smooth="yes"/>
      <point x="473" y="152"/>
      <point x="395" y="66"/>
      <point x="299" y="66" type="curve" smooth="yes"/>
      <point x="203" y="66"/>
      <point x="126" y="150"/>
    </contour>
    <contour>
      <point x="299" y="662" type="curve" smooth="yes"/>
      <point x="269" y="662"/>
      <point x="242" y="694"/>
      <point x="242" y="730" type="curve"/>
      <point x="191" y="730" type="line"/>
      <point x="191" y="667"/>
      <point x="238" y="619"/>
      <point x="299" y="619" type="curve" smooth="yes"/>
      <point x="360" y="619"/>
      <point x="407" y="667"/>
      <point x="407" y="730" type="curve"/>
      <point x="357" y="730" type="line"/>
      <point x="353" y="691"/>
      <point x="328" y="662"/>
    </contour>
  </outline>
</glyph>
<glyph name="racute" format="1">
  <advance width="363"/>
  <unicode hex="0155"/>
  <outline>
    <contour>
      <point x="314" y="730" type="line"/>
      <point x="226" y="730" type="line"/>
      <point x="168" y="629" type="line"/>
      <point x="226" y="609" type="line"/>
    </contour>
    <contour>
      <point x="347" y="525" type="line"/>
      <point x="340" y="526"/>
      <point x="331" y="526"/>
      <point x="318" y="526" type="curve" smooth="yes"/>
      <point x="252" y="521"/>
      <point x="189" y="473"/>
      <point x="153" y="401" type="curve"/>
      <point x="153" y="522" type="line"/>
      <point x="71" y="522" type="line"/>
      <point x="71" y="0" type="line"/>
      <point x="159" y="0" type="line"/>
      <point x="159" y="322" type="line"/>
      <point x="187" y="398"/>
      <point x="259" y="443"/>
      <point x="347" y="445" type="curve"/>
    </contour>
  </outline>
</glyph>
<glyph name="rcommaaccent" format="1">
  <advance width="363"/>
  <unicode hex="0157"/>
  <outline>
    <contour>
      <point x="118" y="-213" type="line"/>
      <point x="148" y="-132" type="line"/>
      <point x="148" y="-48" type="line"/>
      <point x="70" y="-48" type="line"/>
      <point x="70" y="-132" type="line"/>
      <point x="95" y="-132" type="line"/>
      <point x="75" y="-213" type="line"/>
    </contour>
    <contour>
      <point x="347" y="525" type="line"/>
      <point x="340" y="526"/>
      <point x="331" y="526"/>
      <point x="318" y="526" type="curve" smooth="yes"/>
      <point x="252" y="521"/>
      <point x="189" y="473"/>
      <point x="153" y="401" type="curve"/>
      <point x="153" y="522" type="line"/>
      <point x="71" y="522" type="line"/>
      <point x="71" y="0" type="line"/>
      <point x="159" y="0" type="line"/>
      <point x="159" y="322" type="line"/>
      <point x="187" y="398"/>
      <point x="259" y="443"/>
      <point x="347" y="445" type="curve"/>
    </contour>
  </outline>
</glyph>
<glyph name="tcaron" format="1">
  <advance width="352"/>
  <unicode hex="0165"/>
  <outline>
    <contour>
      <point x="390" y="730" type="line"/>
      <point x="302" y="730" type="line"/>
      <point x="244" y="629" type="line"/>
      <point x="302" y="609" type="line"/>
    </contour>
    <contour>
      <point x="320" y="96" type="line"/>
      <point x="310" y="90"/>
      <point x="278" y="74"/>
      <point x="243" y="74" type="curve" smooth="yes"/>
      <point x="212" y="74"/>
      <point x="186" y="91"/>
      <point x="184" y="129" type="curve"/>
      <point x="184" y="453" type="line"/>
      <point x="301" y="453" type="line"/>
      <point x="301" y="522" type="line"/>
      <point x="184" y="522" type="line"/>
      <point x="184" y="696" type="line"/>
      <point x="96" y="696" type="line"/>
      <point x="96" y="522" type="line"/>
      <point x="25" y="522" type="line"/>
      <point x="25" y="453" type="line"/>
      <point x="96" y="453" type="line"/>
      <point x="96" y="102" type="line" smooth="yes"/>
      <point x="96" y="27"/>
      <point x="150" y="-7"/>
      <point x="214" y="-7" type="curve" smooth="yes"/>
      <point x="270" y="-7"/>
      <point x="319" y="16"/>
      <point x="341" y="26" type="curve"/>
    </contour>
  </outline>
</glyph>
<glyph name="Ycircumflex" format="1">
  <advance width="655"/>
  <unicode hex="0176"/>
  <outline>
    <contour>
      <point x="13" y="710" type="line"/>
      <point x="282" y="261" type="line"/>
      <point x="282" y="0" type="line"/>
      <point x="372" y="0" type="line"/>
      <point x="372" y="259" type="line"/>
      <point x="642" y="710" type="line"/>
      <point x="544" y="710" type="line"/>
      <point x="327" y="340" type="line"/>
      <point x="112" y="710" type="line"/>
    </contour>
    <contour>
      <point x="242" y="802" type="line"/>
      <point x="327" y="865" type="line"/>
      <point x="412" y="802" type="line"/>
      <point x="460" y="826" type="line"/>
      <point x="359" y="916" type="line"/>
      <point x="295" y="916" type="line"/>
      <point x="194" y="826" type="line"/>
    </contour>
  </outline>
</glyph>
<glyph name="uni01F1" format="1">
  <advance width="1334"/>
  <unicode hex="01F1"/>
  <outline>
    <contour>
      <point x="331" y="0" type="line"/>
      <point x="540" y="0"/>
      <point x="674" y="141"/>
      <point x="674" y="356" type="curve" smooth="yes"/>
      <point x="674" y="552"/>
      <point x="559" y="710"/>
      <point x="331" y="710" type="curve" smooth="yes"/>
      <point x="85" y="710" type="line"/>
      <point x="85" y="0" type="line"/>
    </contour>
    <contour>
      <point x="583" y="356" type="curve" smooth="yes"/>
      <point x="583" y="199"/>
      <point x="495" y="80"/>
      <point x="331" y="80" type="curve" smooth="yes"/>
      <point x="175" y="80" type="line"/>
      <point x="175" y="630" type="line"/>
      <point x="331" y="630" type="line" smooth="yes"/>
      <point x="492" y="630"/>
      <point x="583" y="516"/>
    </contour>
    <contour>
      <point x="735" y="0" type="line"/>
      <point x="1298" y="0" type="line"/>
      <point x="1298" y="80" type="line"/>
      <point x="848" y="80" type="line"/>
      <point x="1298" y="640" type="line"/>
      <point x="1298" y="710" type="line"/>
      <point x="744" y="710" type="line"/>
      <point x="744" y="630" type="line"/>
      <point x="1193" y="630" type="line"/>
      <point x="735" y="70" type="line"/>
    </contour>
  </outline>
</glyph>
<glyph name="Gacute" format="1">
  <advance width="714"/>
  <unicode hex="01F4"/>
  <outline>
    <contour>
      <point x="586" y="0" type="line"/>
      <point x="662" y="0" type="line"/>
      <point x="662" y="354" type="line"/>
      <point x="433" y="354" type="line"/>
      <point x="433" y="286" type="line"/>
      <point x="586" y="286" type="line"/>
      <point x="586" y="188" type="line"/>
      <point x="523" y="112"/>
      <point x="453" y="76"/>
      <point x="377" y="76" type="curve" smooth="yes"/>
      <point x="237" y="76"/>
      <point x="130" y="203"/>
      <point x="130" y="355" type="curve" smooth="yes"/>
      <point x="130" y="499"/>
      <point x="223" y="634"/>
      <point x="368" y="634" type="curve" smooth="yes"/>
      <point x="455" y="634"/>
      <point x="530" y="594"/>
      <point x="572" y="512" type="curve"/>
      <point x="641" y="560" type="line"/>
      <point x="595" y="652"/>
      <point x="507" y="715"/>
      <point x="370" y="715" type="curve" smooth="yes"/>
      <point x="180" y="715"/>
      <point x="39" y="548"/>
      <point x="39" y="357" type="curve" smooth="yes"/>
      <point x="39" y="174"/>
      <point x="182" y="-5"/>
      <point x="370" y="-5" type="curve" smooth="yes"/>
      <point x="452" y="-5"/>
      <point x="523" y="28"/>
      <point x="586" y="96" type="curve"/>
    </contour>
    <contour>
      <point x="478" y="916" type="line"/>
      <point x="390" y="916" type="line"/>
      <point x="332" y="815" type="line"/>
      <point x="390" y="795" type="line"/>
    </contour>
  </outline>
</glyph>
<glyph name="Oslashacute" format="1">
  <advance width="748"/>
  <unicode hex="01FE"/>
  <outline>
    <contour>
      <point x="564" y="710" type="line"/>
      <point x="536" y="669" type="line"/>
      <point x="490" y="698"/>
      <point x="435" y="715"/>
      <point x="375" y="715" type="curve" smooth="yes"/>
      <point x="183" y="715"/>
      <point x="39" y="544"/>
      <point x="39" y="355" type="curve" smooth="yes"/>
      <point x="39" y="256"/>
      <point x="78" y="159"/>
      <point x="146" y="91" type="curve"/>
      <point x="85" y="0" type="line"/>
      <point x="183" y="0" type="line"/>
      <point x="210" y="40" type="line"/>
      <point x="257" y="11"/>
      <point x="312" y="-5"/>
      <point x="373" y="-5" type="curve" smooth="yes"/>
      <point x="565" y="-5"/>
      <point x="708" y="165"/>
      <point x="708" y="354" type="curve" smooth="yes"/>
      <point x="708" y="450"/>
      <point x="668" y="548"/>
      <point x="601" y="618" type="curve"/>
      <point x="663" y="710" type="line"/>
    </contour>
    <contour>
      <point x="617" y="355" type="curve" smooth="yes"/>
      <point x="617" y="218"/>
      <point x="525" y="76"/>
      <point x="374" y="76" type="curve" smooth="yes"/>
      <point x="330" y="76"/>
      <point x="290" y="88"/>
      <point x="256" y="109" type="curve"/>
      <point x="552" y="545" type="line"/>
      <point x="593" y="494"/>
      <point x="617" y="426"/>
    </contour>
    <contour>
      <point x="130" y="355" type="curve" smooth="yes"/>
      <point x="130" y="493"/>
      <point x="223" y="633"/>
      <point x="374" y="633" type="curve" smooth="yes"/>
      <point x="417" y="633"/>
      <point x="456" y="621"/>
      <point x="490" y="600" type="curve"/>
      <point x="195" y="163" type="line"/>
      <point x="153" y="214"/>
      <point x="130" y="283"/>
    </contour>
    <contour>
      <point x="478" y="916" type="line"/>
      <point x="390" y="916" type="line"/>
      <point x="332" y="815" type="line"/>
      <point x="390" y="795" type="line"/>
    </contour>
  </outline>
</glyph>
<glyph name="adblgrave" format="1">
  <advance width="554"/>
  <unicode hex="0201"/>
  <outline>
    <contour>
      <point x="205" y="-10" type="curve" smooth="yes"/>
      <point x="286" y="-10"/>
      <point x="361" y="24"/>
      <point x="408" y="86" type="curve"/>
      <point x="410" y="49" type="line" smooth="yes"/>
      <point x="414" y="20"/>
      <point x="435" y="-4"/>
      <point x="470" y="-4" type="curve" smooth="yes"/>
      <point x="483" y="-4"/>
      <point x="494" y="-3"/>
      <point x="512" y="0" type="curve"/>
      <point x="512" y="76" type="line"/>
      <point x="492" y="77"/>
      <point x="484" y="86"/>
      <point x="484" y="108" type="curve" smooth="yes"/>
      <point x="484" y="321" type="line" smooth="yes"/>
      <point x="484" y="453"/>
      <point x="402" y="531"/>
      <point x="266" y="531" type="curve" smooth="yes"/>
      <point x="197" y="531"/>
      <point x="130" y="508"/>
      <point x="63" y="463" type="curve"/>
      <point x="92" y="406" type="line"/>
      <point x="149" y="446"/>
      <point x="204" y="467"/>
      <point x="258" y="467" type="curve" smooth="yes"/>
      <point x="345" y="467"/>
      <point x="396" y="415"/>
      <point x="396" y="330" type="curve" smooth="yes"/>
      <point x="396" y="288" type="line"/>
      <point x="356" y="304"/>
      <point x="301" y="314"/>
      <point x="250" y="314" type="curve" smooth="yes"/>
      <point x="121" y="314"/>
      <point x="30" y="248"/>
      <point x="30" y="153" type="curve" smooth="yes"/>
      <point x="30" y="61"/>
      <point x="106" y="-10"/>
    </contour>
    <contour>
      <point x="228" y="56" type="curve" smooth="yes"/>
      <point x="163" y="56"/>
      <point x="114" y="101"/>
      <point x="114" y="160" type="curve" smooth="yes"/>
      <point x="114" y="220"/>
      <point x="175" y="261"/>
      <point x="263" y="261" type="curve" smooth="yes"/>
      <point x="308" y="261"/>
      <point x="355" y="252"/>
      <point x="396" y="236" type="curve"/>
      <point x="396" y="159" type="line" smooth="yes"/>
      <point x="396" y="147"/>
      <point x="389" y="132"/>
      <point x="377" y="120" type="curve" smooth="yes"/>
      <point x="349" y="81"/>
      <point x="290" y="56"/>
    </contour>
    <contour>
      <point x="342" y="609" type="line"/>
      <point x="388" y="629" type="line"/>
      <point x="334" y="730" type="line"/>
      <point x="258" y="730" type="line"/>
    </contour>
    <contour>
      <point x="206" y="609" type="line"/>
      <point x="252" y="629" type="line"/>
      <point x="198" y="730" type="line"/>
      <point x="122" y="730" type="line"/>
    </contour>
  </outline>
</glyph>
<glyph name="einvertedbreve" format="1">
  <advance width="591"/>
  <unicode hex="0207"/>
  <outline>
    <contour>
      <point x="302" y="-10" type="curve" smooth="yes"/>
      <point x="407" y="-10"/>
      <point x="496" y="45"/>
      <point x="530" y="122" type="curve"/>
      <point x="454" y="143" type="line"/>
      <point x="432" y="91"/>
      <point x="369" y="56"/>
      <point x="305" y="56" type="curve" smooth="yes"/>
      <point x="214" y="56"/>
      <point x="137" y="128"/>
      <point x="129" y="231" type="curve"/>
      <point x="562" y="231" type="line"/>
      <point x="563" y="237"/>
      <point x="564" y="251"/>
      <point x="564" y="265" type="curve" smooth="yes"/>
      <point x="564" y="405"/>
      <point x="461" y="531"/>
      <point x="303" y="531" type="curve" smooth="yes"/>
      <point x="146" y="531"/>
      <point x="36" y="408"/>
      <point x="36" y="261" type="curve" smooth="yes"/>
      <point x="36" y="114"/>
      <point x="145" y="-10"/>
    </contour>
    <contour>
      <point x="127" y="296" type="line"/>
      <point x="134" y="395"/>
      <point x="210" y="465"/>
      <point x="303" y="465" type="curve" smooth="yes"/>
      <point x="396" y="465"/>
      <point x="472" y="396"/>
      <point x="481" y="296" type="curve"/>
    </contour>
    <contour>
      <point x="303" y="687" type="curve" smooth="yes"/>
      <point x="332" y="687"/>
      <point x="357" y="658"/>
      <point x="361" y="619" type="curve"/>
      <point x="411" y="619" type="line"/>
      <point x="411" y="682"/>
      <point x="364" y="730"/>
      <point x="303" y="730" type="curve" smooth="yes"/>
      <point x="242" y="730"/>
      <point x="195" y="682"/>
      <point x="195" y="619" type="curve"/>
      <point x="246" y="619" type="line"/>
      <point x="246" y="655"/>
      <point x="273" y="687"/>
    </contour>
  </outline>
</glyph>
<glyph name="uni0412" format="1">
  <advance width="673"/>
  <unicode hex="0412"/>
  <outline>
    <contour>
      <point x="612" y="183" type="curve" smooth="yes"/>
      <point x="612" y="271"/>
      <point x="561" y="340"/>
      <point x="480" y="364" type="curve"/>
      <point x="545" y="393"/>
      <point x="582" y="459"/>
      <point x="582" y="529" type="curve" smooth="yes"/>
      <point x="582" y="618"/>
      <point x="520" y="710"/>
      <point x="420" y="710" type="curve" smooth="yes"/>
      <point x="67" y="710" type="line"/>
      <point x="67" y="0" type="line"/>
      <point x="404" y="0" type="line" smooth="yes"/>
      <point x="518" y="0"/>
      <point x="612" y="73"/>
    </contour>
    <contour>
      <point x="521" y="199" type="curve" smooth="yes"/>
      <point x="521" y="135"/>
      <point x="470" y="78"/>
      <point x="404" y="78" type="curve" smooth="yes"/>
      <point x="157" y="78" type="line"/>
      <point x="157" y="322" type="line"/>
      <point x="411" y="322" type="line" smooth="yes"/>
      <point x="474" y="322"/>
      <point x="521" y="264"/>
    </contour>
    <contour>
      <point x="389" y="632" type="line"/>
      <point x="449" y="632"/>
      <point x="493" y="580"/>
      <point x="493" y="513" type="curve" smooth="yes"/>
      <point x="493" y="448"/>
      <point x="446" y="395"/>
      <point x="383" y="395" type="curve" smooth="yes"/>
      <point x="157" y="395" type="line"/>
      <point x="157" y="632" type="line"/>
    </contour>
  </outline>
</glyph>
<glyph name="uni0417" format="1">
  <advance width="519"/>
  <unicode hex="0417"/>
  <outline>
    <contour>
      <point x="102" y="570" type="line"/>
      <point x="129" y="612"/>
      <point x="179" y="637"/>
      <point x="239" y="637" type="curve" smooth="yes"/>
      <point x="306" y="637"/>
      <point x="357" y="605"/>
      <point x="357" y="540" type="curve" smooth="yes"/>
      <point x="357" y="469"/>
      <point x="296" y="426"/>
      <point x="196" y="426" type="curve" smooth="yes"/>
      <point x="142" y="426" type="line"/>
      <point x="142" y="346" type="line"/>
      <point x="196" y="346" type="line" smooth="yes"/>
      <point x="315" y="346"/>
      <point x="387" y="293"/>
      <point x="387" y="210" type="curve" smooth="yes"/>
      <point x="387" y="132"/>
      <point x="323" y="77"/>
      <point x="236" y="77" type="curve" smooth="yes"/>
      <point x="169" y="77"/>
      <point x="124" y="109"/>
      <point x="94" y="159" type="curve"/>
      <point x="22" y="106" type="line"/>
      <point x="61" y="36"/>
      <point x="138" y="-5"/>
      <point x="232" y="-5" type="curve" smooth="yes"/>
      <point x="374" y="-5"/>
      <point x="478" y="88"/>
      <point x="478" y="216" type="curve" smooth="yes"/>
      <point x="478" y="311"/>
      <point x="420" y="375"/>
      <point x="332" y="386" type="curve"/>
      <point x="403" y="403"/>
      <point x="446" y="466"/>
      <point x="446" y="547" type="curve" smooth="yes"/>
      <point x="446" y="656"/>
      <point x="369" y="715"/>
      <point x="238" y="715" type="curve" smooth="yes"/>
      <point x="147" y="715"/>
      <point x="87" y="686"/>
      <point x="42" y="626" type="curve"/>
    </contour>
  </outline>
</glyph>
<glyph name="uni0419" format="1">
  <advance width="749"/>
  <unicode hex="0419"/>
  <outline>
    <contour>
      <point x="491" y="916" type="line"/>
      <point x="484" y="877"/>
      <point x="445" y="848"/>
      <point x="392" y="848" type="curve" smooth="yes"/>
      <point x="336" y="848"/>
      <point x="292" y="880"/>
      <point x="292" y="916" type="curve"/>
      <point x="239" y="916" type="line"/>
      <point x="241" y="842"/>
      <point x="302" y="799"/>
      <point x="391" y="799" type="curve" smooth="yes"/>
      <point x="480" y="799"/>
      <point x="541" y="842"/>
      <point x="543" y="916" type="curve"/>
    </contour>
    <contour>
      <point x="177" y="710" type="line"/>
      <point x="87" y="710" type="line"/>
      <point x="87" y="0" type="line"/>
      <point x="168" y="0" type="line"/>
      <point x="572" y="563" type="line"/>
      <point x="572" y="0" type="line"/>
      <point x="662" y="0" type="line"/>
      <point x="662" y="710" type="line"/>
      <point x="588" y="710" type="line"/>
      <point x="177" y="137" type="line"/>
    </contour>
  </outline>
</glyph>
<glyph name="uni041B" format="1">
  <advance width="657"/>
  <unicode hex="041B"/>
  <outline>
    <contour>
      <point x="277" y="630" type="line"/>
      <point x="479" y="630" type="line"/>
      <point x="479" y="0" type="line"/>
      <point x="569" y="0" type="line"/>
      <point x="569" y="710" type="line"/>
      <point x="193" y="710" type="line"/>
      <point x="177" y="516" type="line" smooth="yes"/>
      <point x="146" y="140"/>
      <point x="92" y="84"/>
      <point x="7" y="80" type="curve"/>
      <point x="23" y="-7" type="line"/>
      <point x="174" y="-7"/>
      <point x="236" y="145"/>
      <point x="267" y="512" type="curve" smooth="yes"/>
    </contour>
  </outline>
</glyph>
<glyph name="uni041C" format="1">
  <advance width="878"/>
  <unicode hex="041C"/>
  <outline>
    <contour>
      <point x="791" y="0" type="line"/>
      <point x="791" y="710" type="line"/>
      <point x="697" y="710" type="line"/>
      <point x="439" y="249" type="line"/>
      <point x="182" y="710" type="line"/>
      <point x="87" y="710" type="line"/>
      <point x="87" y="0" type="line"/>
      <point x="177" y="0" type="line"/>
      <point x="177" y="549" type="line"/>
      <point x="414" y="128" type="line"/>
      <point x="465" y="128" type="line"/>
      <point x="701" y="549" type="line"/>
      <point x="701" y="0" type="line"/>
    </contour>
  </outline>
</glyph>
<glyph name="uni041E" format="1">
  <advance width="748"/>
  <unicode hex="041E"/>
  <outline>
    <contour>
      <point x="374" y="-5" type="curve" smooth="yes"/>
      <point x="566" y="-5"/>
      <point x="709" y="165"/>
      <point x="709" y="354" type="curve" smooth="yes"/>
      <point x="709" y="532"/>
      <point x="575" y="715"/>
      <point x="376" y="715" type="curve" smooth="yes"/>
      <point x="184" y="715"/>
      <point x="40" y="544"/>
      <point x="40" y="355" type="curve" smooth="yes"/>
      <point x="40" y="173"/>
      <point x="175" y="-5"/>
    </contour>
    <contour>
      <point x="131" y="355" type="curve" smooth="yes"/>
      <point x="131" y="493"/>
      <point x="224" y="633"/>
      <point x="375" y="633" type="curve" smooth="yes"/>
      <point x="519" y="633"/>
      <point x="618" y="500"/>
      <point x="618" y="355" type="curve" smooth="yes"/>
      <point x="618" y="218"/>
      <point x="526" y="76"/>
      <point x="375" y="76" type="curve" smooth="yes"/>
      <point x="228" y="76"/>
      <point x="131" y="210"/>
    </contour>
  </outline>
</glyph>
<glyph name="uni042F" format="1">
  <advance width="637"/>
  <unicode hex="042F"/>
  <outline>
    <contour>
      <point x="550" y="0" type="line"/>
      <point x="550" y="710" type="line"/>
      <point x="276" y="710" type="line" smooth="yes"/>
      <point x="151" y="710"/>
      <point x="61" y="600"/>
      <point x="61" y="493" type="curve" smooth="yes"/>
      <point x="61" y="400"/>
      <point x="121" y="318"/>
      <point x="204" y="288" type="curve"/>
      <point x="28" y="0" type="line"/>
      <point x="133" y="0" type="line"/>
      <point x="296" y="275" type="line"/>
      <point x="460" y="275" type="line"/>
      <point x="460" y="0" type="line"/>
    </contour>
    <contour>
      <point x="460" y="355" type="line"/>
      <point x="275" y="355" type="line" smooth="yes"/>
      <point x="201" y="355"/>
      <point x="152" y="420"/>
      <point x="152" y="493" type="curve" smooth="yes"/>
      <point x="152" y="568"/>
      <point x="212" y="630"/>
      <point x="281" y="630" type="curve" smooth="yes"/>
      <point x="460" y="630" type="line"/>
    </contour>
  </outline>
</glyph>
<glyph name="uni0455" format="1">
  <advance width="494"/>
  <unicode hex="0455"/>
  <outline>
    <contour>
      <point x="254" y="-10" type="curve" smooth="yes"/>
      <point x="380" y="-10"/>
      <point x="461" y="52"/>
      <point x="461" y="149" type="curve" smooth="yes"/>
      <point x="461" y="238"/>
      <point x="395" y="266"/>
      <point x="256" y="299" type="curve" smooth="yes"/>
      <point x="167" y="321"/>
      <point x="133" y="332"/>
      <point x="133" y="381" type="curve" smooth="yes"/>
      <point x="133" y="441"/>
      <point x="184" y="467"/>
      <point x="248" y="467" type="curve" smooth="yes"/>
      <point x="305" y="467"/>
      <point x="362" y="448"/>
      <point x="406" y="409" type="curve"/>
      <point x="446" y="462" type="line"/>
      <point x="399" y="503"/>
      <point x="328" y="531"/>
      <point x="250" y="531" type="curve" smooth="yes"/>
      <point x="139" y="531"/>
      <point x="50" y="474"/>
      <point x="50" y="369" type="curve" smooth="yes"/>
      <point x="50" y="287"/>
      <point x="103" y="263"/>
      <point x="229" y="232" type="curve" smooth="yes"/>
      <point x="329" y="208"/>
      <point x="376" y="193"/>
      <point x="376" y="141" type="curve" smooth="yes"/>
      <point x="376" y="87"/>
      <point x="327" y="55"/>
      <point x="252" y="55" type="curve" smooth="yes"/>
      <point x="185" y="55"/>
      <point x="124" y="79"/>
      <point x="63" y="125" type="curve"/>
      <point x="25" y="66" type="line"/>
      <point x="83" y="17"/>
      <point x="171" y="-10"/>
    </contour>
  </outline>
</glyph>
<glyph name="uni045E" format="1">
  <advance width="545"/>
  <unicode hex="045E"/>
  <outline>
    <contour>
      <point x="280" y="591" type="curve" smooth="yes"/>
      <point x="342" y="591"/>
      <point x="387" y="632"/>
      <point x="387" y="682" type="curve"/>
      <point x="341" y="682" type="line"/>
      <point x="335" y="654"/>
      <point x="310" y="630"/>
      <point x="280" y="630" type="curve" smooth="yes"/>
      <point x="248" y="630"/>
      <point x="220" y="657"/>
      <point x="220" y="682" type="curve"/>
      <point x="173" y="682" type="line"/>
      <point x="173" y="632"/>
      <point x="217" y="591"/>
    </contour>
    <contour>
      <point x="93" y="-216" type="line"/>
      <point x="114" y="-221"/>
      <point x="129" y="-223"/>
      <point x="147" y="-223" type="curve" smooth="yes"/>
      <point x="210" y="-223"/>
      <point x="248" y="-197"/>
      <point x="271" y="-137" type="curve" smooth="yes"/>
      <point x="527" y="522" type="line"/>
      <point x="443" y="522" type="line"/>
      <point x="281" y="79" type="line"/>
      <point x="103" y="522" type="line"/>
      <point x="12" y="522" type="line"/>
      <point x="233" y="0" type="line"/>
      <point x="187" y="-144"/>
      <point x="168" y="-147"/>
      <point x="143" y="-147" type="curve" smooth="yes"/>
      <point x="128" y="-147"/>
      <point x="115" y="-146"/>
      <point x="93" y="-140" type="curve"/>
    </contour>
  </outline>
</glyph>
<glyph name="Udotbelow" format="1">
  <advance width="755"/>
  <unicode hex="1EE4"/>
  <outline>
    <contour>
      <point x="377" y="76" type="curve" smooth="yes"/>
      <point x="215" y="76"/>
      <point x="165" y="211"/>
      <point x="165" y="351" type="curve" smooth="yes"/>
      <point x="165" y="710" type="line"/>
      <point x="75" y="710" type="line"/>
      <point x="75" y="351" type="line" smooth="yes"/>
      <point x="75" y="169"/>
      <point x="152" y="-5"/>
      <point x="378" y="-5" type="curve" smooth="yes"/>
      <point x="596" y="-5"/>
      <point x="680" y="159"/>
      <point x="680" y="351" type="curve" smooth="yes"/>
      <point x="680" y="710" type="line"/>
      <point x="590" y="710" type="line"/>
      <point x="590" y="351" type="line" smooth="yes"/>
      <point x="590" y="215"/>
      <point x="542" y="76"/>
    </contour>
    <contour>
      <point x="419" y="-182" type="line"/>
      <point x="419" y="-76" type="line"/>
      <point x="339" y="-76" type="line"/>
      <point x="339" y="-182" type="line"/>
    </contour>
  </outline>
</glyph>
<glyph name="Ytilde" format="1">
  <advance width="655"/>
  <unicode hex="1EF8"/>
  <outline>
    <contour>
      <point x="13" y="710" type="line"/>
      <point x="282" y="261" type="line"/>
      <point x="282" y="0" type="line"/>
      <point x="372" y="0" type="line"/>
      <point x="372" y="259" type="line"/>
      <point x="642" y="710" type="line"/>
      <point x="544" y="710" type="line"/>
      <point x="327" y="340" type="line"/>
      <point x="112" y="710" type="line"/>
    </contour>
    <contour>
      <point x="389" y="813" type="curve" smooth="yes"/>
      <point x="474" y="813"/>
      <point x="495" y="901"/>
      <point x="495" y="916" type="curve"/>
      <point x="443" y="916" type="line"/>
      <point x="443" y="912"/>
      <point x="438" y="867"/>
      <point x="387" y="867" type="curve" smooth="yes"/>
      <point x="338" y="867"/>
      <point x="315" y="910"/>
      <point x="258" y="910" type="curve" smooth="yes"/>
      <point x="179" y="910"/>
      <point x="159" y="824"/>
      <point x="159" y="807" type="curve"/>
      <point x="211" y="807" type="line"/>
      <point x="211" y="811"/>
      <point x="216" y="855"/>
      <point x="260" y="855" type="curve" smooth="yes"/>
      <point x="303" y="855"/>
      <point x="329" y="813"/>
    </contour>
  </outline>
</glyph>
<glyph name="uni20A6" format="1">
  <advance width="854"/>
  <unicode hex="20A6"/>
  <outline>
    <contour>
      <point x="816" y="428" type="line"/>
      <point x="728" y="428" type="line"/>
      <point x="728" y="709" type="line"/>
      <point x="638" y="709" type="line"/>
      <point x="638" y="428" type="line"/>
      <point x="422" y="428" type="line"/>
      <point x="198" y="710" type="line"/>
      <point x="128" y="710" type="line"/>
      <point x="128" y="428" type="line"/>
      <point x="37" y="428" type="line"/>
      <point x="37" y="376" type="line"/>
      <point x="128" y="376" type="line"/>
      <point x="128" y="317" type="line"/>
      <point x="37" y="317" type="line"/>
      <point x="37" y="265" type="line"/>
      <point x="128" y="265" type="line"/>
      <point x="128" y="0" type="line"/>
      <point x="218" y="0" type="line"/>
      <point x="218" y="265" type="line"/>
      <point x="439" y="265" type="line"/>
      <point x="652" y="0" type="line"/>
      <point x="728" y="0" type="line"/>
      <point x="728" y="265" type="line"/>
      <point x="816" y="265" type="line"/>
      <point x="816" y="317" type="line"/>
      <point x="728" y="317" type="line"/>
      <point x="728" y="376" type="line"/>
      <point x="816" y="376" type="line"/>
    </contour>
    <contour>
      <point x="218" y="376" type="line"/>
      <point x="351" y="376" type="line"/>
      <point x="398" y="317" type="line"/>
      <point x="218" y="317" type="line"/>
    </contour>
    <contour>
      <point x="464" y="376" type="line"/>
      <point x="638" y="376" type="line"/>
      <point x="638" y="317" type="line"/>
      <point x="511" y="317" type="line"/>
    </contour>
    <contour>
      <point x="218" y="542" type="line"/>
      <point x="309" y="428" type="line"/>
      <point x="218" y="428" type="line"/>
    </contour>
    <contour>
      <point x="552" y="265" type="line"/>
      <point x="638" y="265" type="line"/>
      <point x="638" y="157" type="line"/>
    </contour>
  </outline>
</glyph>
<glyph name="onethird" format="1">
  <advance width="889"/>
  <unicode hex="2153"/>
  <outline>
    <contour>
      <point x="686" y="-5" type="curve" smooth="yes"/>
      <point x="774" y="-5"/>
      <point x="853" y="34"/>
      <point x="853" y="107" type="curve" smooth="yes"/>
      <point x="853" y="159"/>
      <point x="813" y="202"/>
      <point x="750" y="211" type="curve"/>
      <point x="809" y="223"/>
      <point x="842" y="253"/>
      <point x="842" y="300" type="curve" smooth="yes"/>
      <point x="842" y="363"/>
      <point x="774" y="411"/>
      <point x="683" y="411" type="curve" smooth="yes"/>
      <point x="619" y="411"/>
      <point x="557" y="388"/>
      <point x="531" y="349" type="curve"/>
      <point x="568" y="306" type="line"/>
      <point x="589" y="338"/>
      <point x="629" y="360"/>
      <point x="683" y="360" type="curve" smooth="yes"/>
      <point x="735" y="360"/>
      <point x="783" y="336"/>
      <point x="783" y="296" type="curve" smooth="yes"/>
      <point x="783" y="254"/>
      <point x="731" y="234"/>
      <point x="648" y="234" type="curve" smooth="yes"/>
      <point x="625" y="234" type="line"/>
      <point x="625" y="184" type="line"/>
      <point x="648" y="184" type="line" smooth="yes"/>
      <point x="739" y="184"/>
      <point x="797" y="159"/>
      <point x="797" y="115" type="curve" smooth="yes"/>
      <point x="797" y="75"/>
      <point x="747" y="50"/>
      <point x="685" y="50" type="curve" smooth="yes"/>
      <point x="612" y="50"/>
      <point x="564" y="90"/>
      <point x="560" y="118" type="curve"/>
      <point x="528" y="81" type="line"/>
      <point x="541" y="27"/>
      <point x="603" y="-5"/>
    </contour>
    <contour>
      <point x="197" y="375" type="line"/>
      <point x="197" y="731" type="line"/>
      <point x="141" y="731" type="line"/>
      <point x="140" y="728"/>
      <point x="88" y="675"/>
      <point x="46" y="675" type="curve"/>
      <point x="46" y="620" type="line"/>
      <point x="78" y="620"/>
      <point x="127" y="652"/>
      <point x="141" y="669" type="curve"/>
      <point x="141" y="375" type="line"/>
      <point x="61" y="375" type="line"/>
      <point x="61" y="320" type="line"/>
      <point x="271" y="320" type="line"/>
      <point x="271" y="375" type="line"/>
    </contour>
    <contour>
      <point x="154" y="-5" type="line"/>
      <point x="426" y="343" type="line"/>
      <point x="703" y="678" type="line"/>
      <point x="660" y="715" type="line"/>
      <point x="392" y="370" type="line"/>
      <point x="112" y="33" type="line"/>
    </contour>
  </outline>
</glyph>
<glyph name="twothirds" format="1">
  <advance width="899"/>
  <unicode hex="2154"/>
  <outline>
    <contour>
      <point x="697" y="-5" type="curve" smooth="yes"/>
      <point x="785" y="-5"/>
      <point x="864" y="34"/>
      <point x="864" y="107" type="curve" smooth="yes"/>
      <point x="864" y="159"/>
      <point x="824" y="202"/>
      <point x="761" y="211" type="curve"/>
      <point x="820" y="223"/>
      <point x="853" y="253"/>
      <point x="853" y="300" type="curve" smooth="yes"/>
      <point x="853" y="363"/>
      <point x="785" y="411"/>
      <point x="694" y="411" type="curve" smooth="yes"/>
      <point x="630" y="411"/>
      <point x="568" y="388"/>
      <point x="542" y="349" type="curve"/>
      <point x="579" y="306" type="line"/>
      <point x="600" y="338"/>
      <point x="640" y="360"/>
      <point x="694" y="360" type="curve" smooth="yes"/>
      <point x="746" y="360"/>
      <point x="794" y="336"/>
      <point x="794" y="296" type="curve" smooth="yes"/>
      <point x="794" y="254"/>
      <point x="742" y="234"/>
      <point x="659" y="234" type="curve" smooth="yes"/>
      <point x="636" y="234" type="line"/>
      <point x="636" y="184" type="line"/>
      <point x="659" y="184" type="line" smooth="yes"/>
      <point x="750" y="184"/>
      <point x="808" y="159"/>
      <point x="808" y="115" type="curve" smooth="yes"/>
      <point x="808" y="75"/>
      <point x="758" y="50"/>
      <point x="696" y="50" type="curve" smooth="yes"/>
      <point x="623" y="50"/>
      <point x="575" y="90"/>
      <point x="571" y="118" type="curve"/>
      <point x="539" y="81" type="line"/>
      <point x="552" y="27"/>
      <point x="614" y="-5"/>
    </contour>
    <contour>
      <point x="349" y="320" type="line"/>
      <point x="349" y="374" type="line"/>
      <point x="126" y="374" type="line"/>
      <point x="126" y="409"/>
      <point x="143" y="453"/>
      <point x="222" y="480" type="curve" smooth="yes"/>
      <point x="274" y="497"/>
      <point x="355" y="524"/>
      <point x="355" y="608" type="curve" smooth="yes"/>
      <point x="355" y="680"/>
      <point x="306" y="731"/>
      <point x="210" y="731" type="curve" smooth="yes"/>
      <point x="114" y="731"/>
      <point x="58" y="681"/>
      <point x="46" y="663" type="curve"/>
      <point x="80" y="624" type="line"/>
      <point x="101" y="646"/>
      <point x="140" y="677"/>
      <point x="202" y="677" type="curve" smooth="yes"/>
      <point x="264" y="677"/>
      <point x="296" y="648"/>
      <point x="296" y="609" type="curve" smooth="yes"/>
      <point x="296" y="550"/>
      <point x="224" y="532"/>
      <point x="164" y="508" type="curve" smooth="yes"/>
      <point x="79" y="473"/>
      <point x="42" y="425"/>
      <point x="42" y="320" type="curve"/>
    </contour>
    <contour>
      <point x="205" y="-5" type="line"/>
      <point x="477" y="343" type="line"/>
      <point x="754" y="678" type="line"/>
      <point x="711" y="715" type="line"/>
      <point x="443" y="370" type="line"/>
      <point x="163" y="33" type="line"/>
    </contour>
  </outline>
</glyph>
<glyph name="Q.sc" format="1">
  <advance width="649"/>
  <outline>
    <contour>
      <point x="528" y="0" type="line"/>
      <point x="606" y="0" type="line"/>
      <point x="530" y="82" type="line"/>
      <point x="580" y="133"/>
      <point x="610" y="202"/>
      <point x="610" y="274" type="curve" smooth="yes"/>
      <point x="610" y="413"/>
      <point x="496" y="555"/>
      <point x="326" y="555" type="curve" smooth="yes"/>
      <point x="162" y="555"/>
      <point x="40" y="422"/>
      <point x="40" y="276" type="curve" smooth="yes"/>
      <point x="40" y="134"/>
      <point x="155" y="-4"/>
      <point x="325" y="-4" type="curve" smooth="yes"/>
      <point x="386" y="-4"/>
      <point x="441" y="14"/>
      <point x="486" y="45" type="curve"/>
    </contour>
    <contour>
      <point x="326" y="68" type="curve" smooth="yes"/>
      <point x="202" y="68"/>
      <point x="121" y="168"/>
      <point x="121" y="275" type="curve" smooth="yes"/>
      <point x="121" y="377"/>
      <point x="199" y="483"/>
      <point x="325" y="483" type="curve" smooth="yes"/>
      <point x="446" y="483"/>
      <point x="528" y="383"/>
      <point x="528" y="276" type="curve" smooth="yes"/>
      <point x="528" y="227"/>
      <point x="510" y="177"/>
      <point x="478" y="138" type="curve"/>
      <point x="434" y="187" type="line"/>
      <point x="355" y="187" type="line"/>
      <point x="435" y="100" type="line"/>
      <point x="405" y="80"/>
      <point x="368" y="68"/>
    </contour>
  </outline>
</glyph>
